<svg width="200" height="200" viewBox="0 0 200 200" fill="none" xmlns="http://www.w3.org/2000/svg">
    <rect width="200" height="200" rx="100" fill="#4496B9"/>
    <path d="M53 149V124.275C53 116.376 57.6501 109.216 64.8673 106.004L71.8 102.918V100.058C71.8 92.4915 76.0703 85.5727 82.834 82.1805L95.3 75.9286V68.8571H85.9V59.4286H95.3V50H104.7V59.4286H114.1V68.8571H104.7V75.9286L117.166 82.1805C123.93 85.5727 128.2 92.4915 128.2 100.058V102.918L135.133 106.004C142.35 109.216 147 116.376 147 124.275V149H109.4V134.857C109.4 132.264 108.479 130.044 106.636 128.196C104.794 126.348 102.582 125.425 100 125.429C97.415 125.429 95.2013 126.353 93.3589 128.201C91.5165 130.049 90.5969 132.267 90.6 134.857V149H53ZM100 108.929C101.958 108.929 103.624 108.24 104.996 106.864C106.368 105.487 107.053 103.818 107.05 101.857C107.05 99.8929 106.364 98.2224 104.991 96.8459C103.619 95.4693 101.955 94.7826 100 94.7857C98.0417 94.7857 96.3763 95.474 95.0039 96.8506C93.6315 98.2271 92.9469 99.896 92.95 101.857C92.95 103.821 93.6362 105.492 95.0086 106.868C96.381 108.245 98.0448 108.932 100 108.929Z" fill="black" fill-opacity="0.7"/>
</svg>
